<?xml version="1.0" encoding="utf-8"?>
<!-- Generator: Adobe Illustrator 19.1.0, SVG Export Plug-In . SVG Version: 6.00 Build 0)  -->
<svg version="1.2" baseProfile="tiny" id="Layer_1" xmlns="http://www.w3.org/2000/svg" xmlns:xlink="http://www.w3.org/1999/xlink"
	 x="0px" y="0px" viewBox="0 0 33.1 30.4" xml:space="preserve">
<g>
	<path d="M9.4,21c-0.6,0.7-1.3,1.5-1.9,2.4c-0.6,0.8-1.2,1.6-1.8,2.4c-0.6,0.8-1.1,1.6-1.6,2.4c-0.5,0.8-0.9,1.5-1.2,2.2H0
		c1.2-2.2,2.5-4.2,3.8-6.1c1.3-1.9,2.7-3.7,4.1-5.5L0.4,8.2h3.3l5.8,8.4l5.8-8.4h3.1L11,18.8c0.6,0.8,1.3,1.6,2,2.5
		c0.7,0.9,1.4,1.9,2.1,2.9c0.7,1,1.4,2,2.1,3.1c0.7,1.1,1.3,2.1,1.8,3.2h-3c-0.3-0.6-0.8-1.3-1.2-2.1s-1-1.5-1.6-2.4
		c-0.6-0.8-1.2-1.7-1.9-2.5C10.7,22.6,10,21.8,9.4,21z"/>
	<path d="M26.5,15.1c1.6,0,2.7-0.3,3.3-0.8c0.6-0.6,0.9-1.3,0.9-2.1c0-0.6-0.1-1.1-0.4-1.5c-0.3-0.4-0.7-0.7-1.1-1
		c-0.5-0.3-1-0.4-1.6-0.5c-0.6-0.1-1.2-0.2-1.9-0.2h-0.6V7h0.6c0.5,0,1,0,1.5-0.1c0.5-0.1,0.9-0.2,1.3-0.4C29,6.3,29.3,6,29.5,5.6
		c0.2-0.3,0.3-0.8,0.3-1.4c0-0.8-0.3-1.4-0.8-1.7C28.5,2.2,27.8,2,26.9,2c-0.9,0-1.7,0.1-2.3,0.4S23.5,3,23.1,3.2l-0.9-1.8
		c0.3-0.3,0.9-0.6,1.7-0.9C24.8,0.2,25.8,0,27,0c1.9,0,3.2,0.4,4,1.1c0.8,0.8,1.2,1.7,1.2,2.9c0,1.8-0.9,3-2.6,3.7
		c1.1,0.3,1.9,0.8,2.6,1.6c0.7,0.7,1,1.7,1,2.9c0,0.7-0.1,1.3-0.4,1.9c-0.2,0.6-0.6,1.1-1.1,1.6c-0.5,0.5-1.2,0.8-2,1.1
		c-0.8,0.3-1.8,0.4-2.9,0.4c-1.1,0-2-0.1-2.7-0.3c-0.7-0.2-1.3-0.4-1.8-0.6l0.6-2c0.4,0.2,0.9,0.4,1.5,0.6
		C24.9,15,25.6,15.1,26.5,15.1z"/>
</g>
</svg>
