<?xml version="1.0" encoding="utf-8"?>
<!-- Generator: Adobe Illustrator 19.1.0, SVG Export Plug-In . SVG Version: 6.00 Build 0)  -->
<svg version="1.2" baseProfile="tiny" id="Layer_1" xmlns="http://www.w3.org/2000/svg" xmlns:xlink="http://www.w3.org/1999/xlink"
	 x="0px" y="0px" viewBox="0 0 26.6 19.5" xml:space="preserve">
<g>
	<path d="M1.2,7.7L0,6.3L5.7,0l5.7,6.3l-1.2,1.3L5.7,3.5L1.2,7.7z"/>
	<path d="M20,17.4c1.6,0,2.7-0.3,3.3-0.8c0.6-0.6,0.9-1.3,0.9-2.1c0-0.6-0.1-1.1-0.4-1.5c-0.3-0.4-0.7-0.7-1.1-1
		c-0.5-0.3-1-0.4-1.6-0.5c-0.6-0.1-1.2-0.2-1.9-0.2h-0.6V9.3h0.6c0.5,0,1,0,1.5-0.1c0.5-0.1,0.9-0.2,1.3-0.4C22.5,8.6,22.8,8.3,23,8
		c0.2-0.3,0.3-0.8,0.3-1.4c0-0.8-0.3-1.4-0.8-1.7c-0.5-0.3-1.2-0.5-2.1-0.5c-0.9,0-1.7,0.1-2.3,0.4C17.5,5,17,5.3,16.6,5.5l-0.9-1.8
		c0.3-0.3,0.9-0.6,1.7-0.9c0.8-0.3,1.8-0.5,3.1-0.5c1.9,0,3.2,0.4,4,1.1c0.8,0.8,1.2,1.7,1.2,2.9c0,1.8-0.9,3-2.6,3.7
		c1.1,0.3,1.9,0.8,2.6,1.6c0.7,0.7,1,1.7,1,2.9c0,0.7-0.1,1.3-0.4,1.9C26,17,25.6,17.6,25.1,18c-0.5,0.5-1.2,0.8-2,1.1
		c-0.8,0.3-1.8,0.4-2.9,0.4c-1.1,0-2-0.1-2.7-0.3c-0.7-0.2-1.3-0.4-1.8-0.6l0.6-2c0.4,0.2,0.9,0.4,1.5,0.6
		C18.4,17.3,19.1,17.4,20,17.4z"/>
</g>
</svg>
